Patient4_TMGait_0pt5_02_left_13_EMG.mot
version=1
nRows=33
nColumns=33
inDegrees=no
endheader
time	1LAddLong	2LGlutMax	3LGlutMed	4LIliopsoas	5LSemiMemb	6LBicFemLong	7LRecFem	8LVastMed	9LVastLat	10LGasMed	11LTibAnt	12lTibPost	13LPeroneusLong	14LSol	15LExtDigLong	16LFlexDigLong	17RAddLong	18RGlutMax	19RGlutMed	20RIliopsoas	21RSemiMemb	22RBicFemLong	23RRecFem	24RVastMed	25RVastLat	26RGasMed	27RTibAnt	28RTibPost	29RPeroneusLong	30RSol	31RExtDigLong	32RFlexDigLong
16.33	0.002747	0.014954	-0.078278	-0.009003	0.003967	0.014343	0.2742	0.013733	-0.46173	-0.018921	0.051575	0.006561	0.081329	0.099487	-0.21927	0	0.01709	-0.038757	0.34332	0.092163	-0.018005	0.065002	0.030823	-0.017242	-0.6131	-0.010071	0.14435	-0.00824	-1.3626	-0.12985	-0.005493	-0.002899
16.331	-0.000153	0.039978	-0.043793	-0.016632	0.009766	0.006714	0.27161	0.016785	-0.44357	-0.010681	0.0354	0.019531	0.11612	0.071869	-0.81604	-0.009918	-0.010376	-0.027313	0.31204	0.059662	0.025177	0.17075	0.047302	0	-0.50842	-0.017242	0.028076	-0.004425	-0.27496	-0.023041	-0.004883	-0.011902
16.332	-0.003052	0.071259	-0.064392	0.011749	0.003052	-0.006256	0.2803	0.013123	-0.42435	-0.000305	0.22568	-0.003204	0.003204	0.015564	-0.41122	-0.007477	-0.020752	-0.045319	0.33554	0.040283	0.25482	0.07309	0.1178	-0.002747	-0.31158	-0.014038	-0.34119	-0.005035	0.92789	-0.004578	-0.002747	-0.007629
16.333	0.003357	0.047302	-0.095825	0.012665	0.011292	0.011749	0.28351	0.021362	-0.39703	0.007324	0.24124	0.007629	-0.054016	-0.012817	-0.44327	-0.002441	-0.025787	-0.017548	0.44327	0.079651	0.30121	-0.12466	0.1149	-0.025787	-0.21347	-0.00885	-0.38071	-0.009003	0.41458	0.018921	-0.005493	-0.004578
16.334	0.008087	0.03006	-0.097504	-0.000153	0.011597	0.006866	0.27054	0.018158	-0.36179	0.00061	0.061646	-0.002747	-0.05722	-0.033264	-0.35538	-0.000153	-0.000916	-0.046234	0.52597	0.013123	0.159	-0.10437	0.18539	-0.033417	-0.18158	0.008545	-0.19226	-0.006866	-0.23544	-0.078888	-0.003662	-0.001221
16.335	0.01236	0.001068	-0.11673	-0.011902	0.010071	0.022888	0.24002	0.022888	-0.32883	-0.016937	-0.16098	0.014343	-0.009613	-0.011597	0.050507	-0.002899	0.023499	-0.048828	0.50186	-0.007019	-0.014191	-0.00412	0.18036	-0.054474	-0.18616	0.022125	-0.098724	0.006714	-1.3394	-0.26627	-0.00412	-0.001831
16.336	0.014038	-0.008392	-0.093842	-0.020294	0.007935	0.021057	0.20783	0.024109	-0.26718	-0.016174	-0.16602	0.006714	0.028229	-0.000916	0.24948	-0.006866	0.023956	-0.027771	0.62057	0.014038	-0.07431	0.076447	-0.004425	-0.027771	-0.066528	0.016632	-0.087128	-0.003662	-0.10483	-0.36728	-0.005341	0.00412
16.337	0.014343	-0.013275	-0.096283	-0.006866	0.005493	0.006866	0.19898	0.020294	-0.20676	0.014801	-0.10346	0.005493	0.046539	0.016479	0.073242	-0.006561	0.027618	-0.077057	0.23285	0.080872	-0.15289	0.088806	-0.1619	-0.024872	0.025635	0.002136	-0.19333	-0.001373	1.8457	-0.15396	-0.001373	-0.003357
16.338	0.018921	-0.015869	-0.083008	0.006866	0.007782	0.020447	0.18066	0.025787	-0.13489	-0.014648	-0.09613	0.010681	0.10788	-0.012054	0.062561	0.002747	0.019226	-0.13611	0.38361	0.079651	-0.18906	-0.048218	-0.00824	-0.051422	0.051575	-0.021973	-0.32562	0.001373	2.1968	0.15259	-0.002899	-0.003815
16.339	0.019836	-0.018768	-0.090942	-0.000305	0.006256	0.024109	0.19058	0.015106	-0.079193	-0.020905	-0.1152	0.018463	0.15457	0.002899	-0.14069	-0.001984	0.000305	-0.10269	0.20294	0.059509	-0.2153	-0.12024	0.10925	-0.060272	0.057526	-0.030212	-0.075378	-0.000763	0.66345	0.020294	-0.006256	0.005188
16.34	0.015259	-0.029144	-0.085297	0.008087	0.002899	0.014191	0.18112	0.028687	-0.027161	-0.00946	-0.098114	-0.00473	0.15671	0.025177	-0.15198	0	0.015259	-0.10544	-0.008392	0.021057	0.2301	-0.16266	0.10422	-0.075989	0.019836	-0.03891	0.13138	-0.003052	-1.3091	0.016327	-0.002441	0.007629
16.341	0.009918	-0.024109	-0.087433	0.016479	0.004883	0.02182	0.20584	0.046539	0.021057	-0.015106	-0.045319	0.015869	0.16022	0.042267	-0.027466	0.005341	0.020447	-0.16373	0.12573	-0.015717	0.28748	-0.14481	0.081024	-0.087585	0.012054	-0.023804	-0.000458	-0.003967	-1.2077	0.12772	-0.002747	0.005646
16.342	0.015259	-0.026093	-0.084076	0.002441	0.004425	0.01709	0.22629	0.016785	0.05722	0.004578	-0.01297	0.020905	0.14999	0.026093	0.04837	-0.001984	-0.005951	-0.21774	0.066223	-0.053711	0.22492	-0.000916	0.076752	-0.14297	-0.012817	-0.013428	-0.26581	-0.009003	0.50247	0.016479	-0.005188	0.007782
16.343	0.008698	0.008392	-0.086517	-0.024261	0.003357	0.003815	0.26047	-0.002441	0.083618	-0.033875	0.077515	0.010834	0.008087	0.015411	0.064392	-0.012207	-0.063171	-0.19791	-0.054169	-0.038452	0.17716	0.07309	0.048218	-0.014648	0.012817	-0.001068	-0.3244	-0.00473	0.20721	-0.054779	-0.003967	0.006409
16.344	0.01358	0.018005	-0.074463	-0.015259	0.000763	-0.015564	0.26184	0.007477	0.10925	-0.060577	-0.000153	0.009308	-0.014038	0.039673	0.009003	0	-0.066376	-0.215	0.1062	-0.030212	-0.032349	-0.11124	0.003052	0.036163	0.054016	-0.000916	-0.19867	-0.001373	0.61981	-0.003052	-0.005646	0.003357
16.345	0.012817	0.012512	-0.054779	-0.008087	0.000305	-0.003357	0.25864	0.014496	0.13596	-0.06546	-0.060272	0.005035	0.00351	0.048065	0.025635	-0.005798	-0.050659	-0.17303	0.18829	-0.018311	-0.017548	-0.10803	-0.002289	0.088348	0.03952	0.000763	-0.11353	-0.001068	0.15656	-0.057831	-0.00473	0.00351
16.346	0.014191	0.034637	-0.056763	-0.000458	-0.020752	0.002899	0.22873	0.022736	0.15823	-0.056305	-0.031891	0.011749	0.068207	0.00946	0.14526	-0.007019	-0.040588	-0.17716	0.17044	-0.011292	0.007477	-0.10666	0.017395	0.1796	0.039978	-0.014038	0.066376	-0.00351	-0.39154	-0.037231	-0.007935	0.00473
16.347	0.01709	0.056915	-0.079346	-0.007324	0.006409	-0.022278	0.21164	0.011749	0.17807	0.007782	0.00824	0.00412	0.039215	-0.004883	0.23285	0.006104	-0.007477	-0.15243	0.3009	-0.10681	-0.036163	-0.1503	0.16449	0.13779	0.042114	-0.032959	0.13336	-0.00885	-0.36087	0.06546	-0.002899	-0.002289
16.348	0.007019	0.065155	-0.090942	-0.021973	-0.007324	-0.002747	0.19547	0.017548	0.18555	0.048981	0.013733	0.007782	0.021057	-0.037842	0.23682	0.002289	0.013123	-0.17334	0.4747	-0.22446	-0.032349	-0.26779	0.25787	0.081482	0.012665	-0.043335	0.12817	-0.011749	-0.17853	0.12863	-0.005188	-0.000458
16.349	0.015869	0.078888	-0.084686	-0.027618	0.006409	-0.007324	0.20203	0.018311	0.1947	0.072937	0.036621	0.016327	0.01297	-0.013428	0.14328	0.005188	0.023499	-0.15289	0.52246	-0.20721	0.033264	-0.43503	0.25177	0.079803	0.042267	-0.050049	0.14755	-0.013428	-0.12985	0.037689	-0.003662	-0.00473
16.35	0.019073	0.10864	-0.071564	-0.009308	0.007019	-0.023956	0.17792	0.016174	0.20218	0.047455	0.051117	0.009308	0.044403	0.008698	0.058899	-0.003052	0.036621	-0.16357	0.53055	-0.026093	0.048218	-0.22675	0.22064	0.025024	-0.031128	-0.040436	0.14435	-0.014496	-0.35202	0.10635	-0.003662	-0.006714
16.351	0.005035	0.15854	-0.059967	0.009918	0.003967	-0.013733	0.15701	0.016479	0.21255	0.027466	0.13412	0.012054	0.09903	0.018921	-0.045776	0.000916	0.024414	-0.11078	0.3244	0.23773	0.057526	-0.24628	-0.046692	-0.00885	0.017395	-0.015259	0.15182	-0.02182	0.29678	0.15747	-0.009155	0.004425
16.352	0.007935	0.19486	-0.066681	0.029297	0.007019	-0.012207	0.18524	0.019989	0.2182	0.044861	0.23025	0.011597	0.063171	-0.032654	-0.09613	0.00351	0.018311	-0.12985	0.44205	0.30884	-0.07309	-0.29587	-0.14648	0.016022	0.05127	0.019684	-0.030518	-0.023041	1.2459	0.056915	-0.001526	0.004883
16.353	0.010376	0.19699	-0.063782	0.038605	-0.004883	-0.02594	0.1532	0.017548	0.2272	0.010376	-0.081177	0.009308	0.10788	-0.056	0.081177	0.000763	0.014801	-0.14389	0.41016	0.20523	-0.17151	-0.31906	0.094299	0.028229	0.001678	-0.046692	-0.077362	0.002136	1.0551	0.031738	-0.000153	-0.001678
16.354	0.00885	0.19989	-0.050354	0.021057	0.004883	-0.008087	0.15213	0.020447	0.23468	-0.019989	-0.12619	0.007477	0.095367	-0.036926	0.27893	0.006409	-0.007324	-0.14282	0.56397	0.092468	-0.064087	-0.20844	0.11093	0.13886	0.011444	-0.12421	0.037384	0.072174	0.83633	0.056915	-0.004425	-0.003662
16.355	0.014801	0.2243	-0.050354	-0.005035	0.02243	-0.007935	0.12711	0.016327	0.24887	0.000305	-0.070648	0.022736	0.022278	-0.018921	0.097046	-0.00885	0.004578	-0.12039	0.62073	0.00885	-0.022278	-0.13412	0.13534	0.10056	-0.0177	-0.057068	0.062256	0.013275	0.013885	0.022278	-0.00412	0.004425
16.356	0.014496	0.23544	-0.061951	-0.01236	0.002289	0.003204	0.13489	0.019684	0.26138	0.007935	-0.041504	0.003052	0.011902	-0.010681	-0.20279	-0.004425	0.013275	-0.10803	0.4863	0.029144	-0.011139	-0.019684	0.45548	-0.010529	-0.039215	0.1207	-0.040283	0.002899	0.32959	-0.028381	-0.00412	0.009155
16.357	0.01297	0.2272	-0.049286	0.001068	-0.022736	-0.005798	0.13565	0.016174	0.25238	0.021057	0.06012	0.009613	-0.014801	-0.005798	-0.33249	-0.002747	-0.000916	-0.063782	0.41046	-0.006561	-0.078735	0.060883	0.41367	-0.10696	-0.10696	0.054626	-0.32776	-0.00061	0.23071	-0.098267	-0.003815	0.006866
16.358	0.012817	0.23178	-0.062408	0.002289	-0.026093	-0.020905	0.13397	0.020752	0.24994	-0.017242	0.24231	0.006409	0.033417	0.014191	-0.24719	-0.00351	0.001373	-0.096436	0.37094	-0.036926	-0.021973	0.094604	0.020447	-0.22537	-0.17716	0.015411	-0.4306	-0.005493	-0.003204	-0.10666	-0.002136	0.016632
16.359	0.009308	0.19058	-0.088806	0.002441	0.000916	-0.015259	0.11429	0.025177	0.25513	-0.031891	0.06424	0.006561	0.1181	-0.013123	-0.20447	0.003815	-0.007629	-0.09201	0.3923	-0.027466	-0.000916	0.16586	-0.050049	-0.26916	-0.12131	-0.015106	-0.233	-0.00473	-0.29785	0.04837	-0.005341	0.014954
16.36	0.012512	0.22446	-0.10635	-0.001221	0.011444	-0.036011	0.11353	0.022125	0.26291	-0.019684	0.053558	0.009155	0.0914	-0.027771	-0.13031	0.002747	-0.022125	-0.073853	0.46371	0.023956	-0.042877	0.19974	-0.11673	-0.25589	-0.037994	-0.018921	0.11261	-0.009918	-0.1651	0.24872	-0.00351	0.014038
16.361	0.009918	0.18585	-0.10117	0.00824	-0.003815	-0.025787	0.12253	0.016937	0.25574	-0.016632	0.04303	0.008087	0.021057	0.001526	-0.024109	0.009918	-0.009155	-0.090485	0.38315	0.042725	-0.1384	0.044708	-0.168	-0.095367	0.031281	0.012665	0.63675	-0.005798	-0.62637	0.21027	-0.009308	0.003357
16.362	0.010986	0.13962	-0.090179	-0.007172	-0.01236	-0.051575	0.12405	0.015717	0.26367	-0.023499	-0.15411	0.006866	-0.032196	0.030823	-0.015564	-0.00351	-0.001526	-0.056305	0.49728	-0.012512	-0.12009	-0.19134	-0.1268	0.098572	0.057983	0.01297	1.0385	-0.006409	-1.2268	-0.013123	-0.003052	0.009308
